<svg xmlns="http://www.w3.org/2000/svg" viewBox="0 0 32 32" fill="none" role="img" aria-label="React Studio">
  <path
    d="M9.25 6.25C6.4 6.25 4.75 8.5 4.75 10.75c0 1.2-.65 2-1.75 2.45 1.1.45 1.75 1.25 1.75 2.45 0 2.25 1.65 4.5 4.5 4.5"
    stroke="#61DAFB"
    stroke-width="1.15"
    stroke-linecap="round"
    stroke-linejoin="round"
  />
  <path
    d="M22.75 6.25c2.85 0 4.5 2.25 4.5 4.5 0 1.2.65 2 1.75 2.45-1.1.45-1.75 1.25-1.75 2.45 0 2.25-1.65 4.5-4.5 4.5"
    stroke="#61DAFB"
    stroke-width="1.15"
    stroke-linecap="round"
    stroke-linejoin="round"
  />
  <path
    transform="translate(0 -2.6)"
    d="M9 16a7 3 0 1 0 14 0 7 3 0 1 0-14 0"
    stroke="#61DAFB"
    stroke-width="0.9"
  />
  <path
    transform="translate(0 -2.6) rotate(60 16 16)"
    d="M9 16a7 3 0 1 0 14 0 7 3 0 1 0-14 0"
    stroke="#61DAFB"
    stroke-width="0.9"
  />
  <path
    transform="translate(0 -2.6) rotate(-60 16 16)"
    d="M9 16a7 3 0 1 0 14 0 7 3 0 1 0-14 0"
    stroke="#61DAFB"
    stroke-width="0.9"
  />
  <path
    transform="translate(0 -2.6)"
    d="M14.65 16a1.35 1.35 0 1 0 2.7 0 1.35 1.35 0 1 0-2.7 0"
    fill="#61DAFB"
  />
  <path
    transform="translate(0 -2.6)"
    d="M22.3 16a0.7 0.7 0 1 0 1.4 0 0.7 0.7 0 1 0-1.4 0"
    fill="#1a6fe8"
  />
  <path
    transform="translate(0 -2.6)"
    d="M11.8 9.94a0.7 0.7 0 1 0 1.4 0 0.7 0.7 0 1 0-1.4 0"
    fill="#d94848"
  />
  <path
    transform="translate(0 -2.6)"
    d="M11.8 22.06a0.7 0.7 0 1 0 1.4 0 0.7 0.7 0 1 0-1.4 0"
    fill="#7c3aed"
  />
</svg>
